<svg width="16" height="19" viewBox="0 0 16 19" fill="none" xmlns="http://www.w3.org/2000/svg">
<path fill-rule="evenodd" clip-rule="evenodd" d="M11.1798 0.558551L10.1446 1.59449C11.8566 2.25816 13.0442 3.68838 13.0436 5.35042C13.0436 5.3516 2.9695 5.37067 2.9695 5.35042C2.9695 3.6842 4.16358 2.25045 5.88203 1.5892L4.85212 0.558618C4.72418 0.430718 4.72418 0.223777 4.85212 0.0959437C4.97951 -0.0318938 5.1864 -0.0318938 5.31434 0.0959437L6.58609 1.36861C7.03649 1.25978 7.51298 1.19851 8.00714 1.19851C8.50726 1.19851 8.98788 1.2603 9.44357 1.37213L10.7176 0.0958763C10.8456 -0.0319588 11.0519 -0.0319588 11.1798 0.0958763C11.3078 0.224365 11.3078 0.430718 11.1798 0.558551ZM0 6.9852C0 6.41017 0.53032 5.9451 1.18457 5.9451C1.83824 5.9451 2.36921 6.41072 2.36914 6.9852V11.4339C2.36914 12.0084 1.83818 12.4746 1.18457 12.4746C0.530382 12.4746 0 12.0084 0 11.4339V6.9852ZM6.52505 4.16411C6.19735 4.16411 5.93243 3.89891 5.93243 3.5706C5.93243 3.24295 6.19729 2.97709 6.52505 2.97709C6.8528 2.97709 7.11766 3.24288 7.11766 3.5706C7.11822 3.89825 6.85157 4.16411 6.52505 4.16411ZM8.896 3.5706C8.896 3.89891 9.16092 4.16411 9.48862 4.16411C9.81569 4.16411 10.0812 3.89832 10.0812 3.5706C10.0812 3.24288 9.81631 2.97709 9.48862 2.97709C9.16086 2.97709 8.896 3.24295 8.896 3.5706ZM14.816 5.9451C14.1618 5.9451 13.6308 6.41017 13.6308 6.9852V11.4339C13.6308 12.0084 14.1618 12.4746 14.816 12.4746C15.4702 12.4746 16 12.0078 16 11.4339V6.9852C16 6.41072 15.469 5.9451 14.816 5.9451ZM4.74135 14.842C3.76241 14.8385 2.9695 14.0439 2.9695 13.0627H2.97009V5.94332H13.0441V13.0627C13.0441 14.0452 12.2482 14.842 11.2663 14.842H11.2586V17.9593C11.2586 18.5344 10.7282 19 10.0746 19C9.42049 19 8.89009 18.5343 8.89009 17.9593V14.842H7.10991V17.9593C7.10991 18.5344 6.57951 19 5.92591 19C5.27175 19 4.74135 18.5343 4.74135 17.9593V14.842Z" fill="white"/>
</svg>
