<svg width="16" height="19" viewBox="0 0 16 19" fill="none" xmlns="http://www.w3.org/2000/svg">
<path fill-rule="evenodd" clip-rule="evenodd" d="M11.9114 0C12.0377 1.11346 11.5748 2.2296 10.8891 3.0341C10.2026 3.83677 9.07692 4.46184 7.97415 4.37864C7.82498 3.28744 8.38166 2.15096 9.0176 1.43892C9.72628 0.636238 10.9237 0.0388905 11.9114 0ZM15.4708 6.48617C15.27 6.60638 13.3392 7.76222 13.3633 10.0955C13.3885 12.9066 15.8585 13.8829 15.9944 13.9366C15.9975 13.9378 15.9993 13.9385 16 13.9388C15.9988 13.9423 15.9966 13.949 15.9934 13.959C15.9349 14.1402 15.5375 15.3714 14.639 16.6408C13.8194 17.7985 12.9711 18.9508 11.6322 18.9749C10.9888 18.9866 10.5588 18.8066 10.1117 18.6196C9.64396 18.4238 9.15753 18.2203 8.38837 18.2203C7.58212 18.2203 7.07283 18.4301 6.58222 18.6322C6.15744 18.8073 5.74667 18.9765 5.16929 18.9988C3.87722 19.0451 2.89314 17.7487 2.06786 16.5945C0.378916 14.2364 -0.910162 9.92915 0.822682 7.02162C1.68146 5.57731 3.21931 4.66356 4.88714 4.63959C5.60656 4.62695 6.30325 4.8943 6.91291 5.12825C7.37869 5.30699 7.79367 5.46624 8.12917 5.46624C8.4309 5.46624 8.83514 5.31211 9.30643 5.13242C10.0481 4.84963 10.9559 4.50353 11.8915 4.59513C12.5322 4.621 14.3302 4.84473 15.4844 6.47793C15.4816 6.47966 15.4771 6.48241 15.4708 6.48617Z" fill="#090909"/>
</svg>
