<svg width="32" height="32" viewBox="0 0 32 32" fill="none" xmlns="http://www.w3.org/2000/svg">
<path fill-rule="evenodd" clip-rule="evenodd" d="M16 0C19.8857 0 23.2095 2.79626 23.88 6.62932H8.12C8.79049 2.79626 12.1143 0 16 0ZM26.1867 12.0773C26.5038 13.3528 26.665 14.6621 26.6667 15.9764V17.3117H32V19.9823H26.1733C25.7665 21.6505 25.0667 23.233 24.1067 24.6559L29.56 30.1172L27.68 32L22.3467 26.6588C20.9682 27.9924 19.2217 28.8808 17.3333 29.2092V14.6411H14.6667V29.2092C12.8198 28.8881 11.1085 28.0289 9.74667 26.7389L4.49333 32L2.66667 30.1039L8 24.7627C6.99051 23.3153 6.25394 21.6952 5.82667 19.9823H0V17.3117H5.33333V15.9764C5.33503 14.6621 5.49622 13.3528 5.81333 12.0773L0 6.24209L1.88 4.35932L6.81333 9.29992H25.1867L30.12 4.35932L32 6.24209L26.1867 12.0773Z" fill="#090909"/>
</svg>
