<svg width="16" height="16" viewBox="0 0 16 16" fill="none" xmlns="http://www.w3.org/2000/svg">
<path fill-rule="evenodd" clip-rule="evenodd" d="M5.84583 2H8.184C9.6558 2 10.681 2.27354 11.4758 2.69859C12.268 3.12227 12.8777 3.73203 13.3014 4.52424C13.7265 5.31902 14 6.3442 14 7.816V8.184C14 9.6558 13.7265 10.681 13.3014 11.4758C12.8777 12.268 12.268 12.8777 11.4758 13.3014C10.681 13.7265 9.6558 14 8.184 14H5.84583C5.23067 14 4.91984 13.9665 4.75134 13.934C4.63018 13.9106 4.57605 13.8882 4.47793 13.8357C4.33758 13.7606 4.23939 13.6624 4.16433 13.5221C4.11185 13.4239 4.08942 13.3698 4.06602 13.2487C4.03348 13.0802 4 12.7693 4 12.1542V11H2V12.1542C2 13.4915 2.13924 13.9764 2.4007 14.4653C2.66216 14.9542 3.04584 15.3378 3.53473 15.5993C4.02362 15.8608 4.50855 16 5.84583 16H8.184C9.9152 16 11.2782 15.6751 12.419 15.065C13.5597 14.455 14.455 13.5597 15.065 12.419C15.6751 11.2782 16 9.9152 16 8.184V7.816C16 6.0848 15.6751 4.72178 15.065 3.58104C14.455 2.4403 13.5597 1.54504 12.419 0.93496C11.2782 0.32489 9.9152 0 8.184 0H5.84583C4.50855 0 4.02362 0.13924 3.53473 0.4007C3.04584 0.66216 2.66216 1.04584 2.4007 1.53473C2.13924 2.02362 2 2.50855 2 3.84583V5H4V3.84583C4 3.23067 4.03348 2.91984 4.06602 2.75135C4.08942 2.63018 4.11185 2.57605 4.16433 2.47793C4.23939 2.33758 4.33758 2.23939 4.47793 2.16433C4.57605 2.11185 4.63018 2.08942 4.75135 2.06602C4.91984 2.03348 5.23067 2 5.84583 2ZM0 8C0 7.4477 0.44772 7 1 7H7C7.5523 7 8 7.4477 8 8C8 8.5523 7.5523 9 7 9H1C0.44772 9 0 8.5523 0 8Z" fill="#4360DF"/>
</svg>
