<svg width="19" height="18" viewBox="0 0 19 18" fill="none" xmlns="http://www.w3.org/2000/svg">
<path fill-rule="evenodd" clip-rule="evenodd" d="M10.3947 8.1222C8.1694 8.1222 6.36309 6.32769 6.36309 4.11109C6.36309 1.89449 8.1694 0.0999761 10.3947 0.0999761C12.6199 0.0999761 14.4262 1.89449 14.4262 4.11109C14.4262 6.32769 12.6199 8.1222 10.3947 8.1222Z" fill="white" fill-opacity="0.4"/>
<path fill-rule="evenodd" clip-rule="evenodd" d="M6.36304 4.11109C6.36304 6.32769 8.16935 8.1222 10.3946 8.1222C12.6199 8.1222 14.4262 6.32769 14.4262 4.11109C14.4262 1.89449 12.6199 0.0999756 10.3946 0.0999756C8.16935 0.0999756 6.36304 1.89449 6.36304 4.11109ZM12.6262 4.11109C12.6262 5.33092 11.6284 6.3222 10.3946 6.3222C9.16083 6.3222 8.16304 5.33092 8.16304 4.11109C8.16304 2.89125 9.16083 1.89998 10.3946 1.89998C11.6284 1.89998 12.6262 2.89125 12.6262 4.11109Z" fill="white"/>
<path fill-rule="evenodd" clip-rule="evenodd" d="M10.8369 13.8889C10.8369 16.1055 12.6432 17.9 14.8685 17.9C17.0938 17.9 18.9001 16.1055 18.9001 13.8889C18.9001 11.6723 17.0938 9.87781 14.8685 9.87781C12.6432 9.87781 10.8369 11.6723 10.8369 13.8889ZM17.1001 13.8889C17.1001 15.1088 16.1023 16.1 14.8685 16.1C13.6347 16.1 12.6369 15.1088 12.6369 13.8889C12.6369 12.6691 13.6347 11.6778 14.8685 11.6778C16.1023 11.6778 17.1001 12.6691 17.1001 13.8889Z" fill="white"/>
<path fill-rule="evenodd" clip-rule="evenodd" d="M0.100098 12.1111C0.100098 14.3277 1.90641 16.1222 4.13168 16.1222C6.35694 16.1222 8.16326 14.3277 8.16326 12.1111C8.16326 9.89449 6.35694 8.09998 4.13168 8.09998C1.90641 8.09998 0.100098 9.89449 0.100098 12.1111ZM6.36326 12.1111C6.36326 13.3309 5.36546 14.3222 4.13168 14.3222C2.89789 14.3222 1.9001 13.3309 1.9001 12.1111C1.9001 10.8912 2.89789 9.89998 4.13168 9.89998C5.36546 9.89998 6.36326 10.8912 6.36326 12.1111Z" fill="white"/>
</svg>
