<svg width="25" height="24" viewBox="0 0 25 24" fill="none" xmlns="http://www.w3.org/2000/svg">
<path fill-rule="evenodd" clip-rule="evenodd" d="M12.75 0.750019C8.93933 0.744524 5.42568 2.80696 3.5728 6.13683C1.71991 9.4667 1.81953 13.5397 3.833 16.775L0.75 23.25L7.224 20.166C11.0101 22.521 15.8706 22.2279 19.3464 19.4352C22.8222 16.6424 24.1551 11.959 22.6708 7.75461C21.1865 3.55018 17.2087 0.74166 12.75 0.750019V0.750019Z" stroke="white" stroke-width="1.5" stroke-linecap="round" stroke-linejoin="round"/>
<path d="M8.25 10.875C8.04289 10.875 7.875 11.0429 7.875 11.25C7.875 11.4571 8.04289 11.625 8.25 11.625C8.45711 11.625 8.625 11.4571 8.625 11.25C8.625 11.0429 8.45711 10.875 8.25 10.875" stroke="white" stroke-width="1.5" stroke-linecap="round" stroke-linejoin="round"/>
<path d="M12.75 10.875C12.5429 10.875 12.375 11.0429 12.375 11.25C12.375 11.4571 12.5429 11.625 12.75 11.625C12.9571 11.625 13.125 11.4571 13.125 11.25C13.125 11.0429 12.9571 10.875 12.75 10.875" stroke="white" stroke-width="1.5" stroke-linecap="round" stroke-linejoin="round"/>
<path d="M17.25 10.875C17.0429 10.875 16.875 11.0429 16.875 11.25C16.875 11.4571 17.0429 11.625 17.25 11.625C17.4571 11.625 17.625 11.4571 17.625 11.25C17.625 11.0429 17.4571 10.875 17.25 10.875" stroke="white" stroke-width="1.5" stroke-linecap="round" stroke-linejoin="round"/>
</svg>
