<svg width="21" height="20" viewBox="0 0 21 20" fill="none" xmlns="http://www.w3.org/2000/svg">
<path fill-rule="evenodd" clip-rule="evenodd" d="M11 18C14.866 18 18 14.866 18 11C18 7.13401 14.866 4 11 4C7.13401 4 4 7.13401 4 11C4 14.866 7.13401 18 11 18Z" stroke="#A1AFEF" stroke-width="2" stroke-linecap="round" stroke-linejoin="round"/>
<path fill-rule="evenodd" clip-rule="evenodd" d="M11.5 8C13.433 8 15 6.433 15 4.5C15 2.567 13.433 1 11.5 1C9.567 1 8 2.567 8 4.5C8 6.433 9.567 8 11.5 8Z" fill="white" stroke="#4360DF" stroke-width="2"/>
<path fill-rule="evenodd" clip-rule="evenodd" d="M16.5 19C18.433 19 20 17.433 20 15.5C20 13.567 18.433 12 16.5 12C14.567 12 13 13.567 13 15.5C13 17.433 14.567 19 16.5 19Z" fill="white" stroke="#4360DF" stroke-width="2"/>
<path fill-rule="evenodd" clip-rule="evenodd" d="M4.5 17C6.433 17 8 15.433 8 13.5C8 11.567 6.433 10 4.5 10C2.567 10 1 11.567 1 13.5C1 15.433 2.567 17 4.5 17Z" fill="white" stroke="#4360DF" stroke-width="2"/>
</svg>
