<svg width="18" height="16" viewBox="0 0 18 16" fill="none" xmlns="http://www.w3.org/2000/svg">
<path fill-rule="evenodd" clip-rule="evenodd" d="M3.00685 0C1.34736 0 0 1.34227 0 3.00247V12.9975C0 14.651 1.34842 16 3.00685 16H14.9932C16.6526 16 18 14.6577 18 12.9975V3.00247C18 1.34898 16.6516 0 14.9932 0H3.00685ZM2 12.9975V6H16V12.9975C16 13.5512 15.5501 14 14.9932 14H3.00685C2.45078 14 2 13.5442 2 12.9975ZM16 4H2V3.00247C2 2.44882 2.44995 2 3.00685 2H14.9932C15.5492 2 16 2.45576 16 3.00247V4ZM13 8C12.4439 8 12 8.4519 12 9.0094V10.9906C12 11.5566 12.4477 12 13 12C13.5561 12 14 11.5481 14 10.9906V9.0094C14 8.4434 13.5523 8 13 8Z" fill="#4360DF"/>
</svg>
