<svg width="34" height="34" viewBox="0 0 34 34" fill="none" xmlns="http://www.w3.org/2000/svg">
<path fill-rule="evenodd" clip-rule="evenodd" d="M17 0C7.60301 0 0 7.60301 0 17C0 26.397 7.60301 34 17 34C26.397 34 34 26.397 34 17C34 7.60301 26.397 0 17 0ZM17.4698 6.02261L23.9196 16.0176L17.0854 20.7588L10.1231 15.9749L16.5302 6.02261C16.7437 5.6809 17.2563 5.6809 17.4698 6.02261ZM17.5126 27.9347L24.3467 17.299C24.3565 17.2795 24.364 17.26 24.3713 17.2411C24.3826 17.2118 24.3935 17.1837 24.4113 17.1587L24.5176 17.0854C24.4638 17.1034 24.4326 17.1288 24.4113 17.1587L17.5126 21.9121C17.4858 21.921 17.4609 21.9299 17.4371 21.9384C17.3469 21.9707 17.2723 21.9975 17.1709 21.9975C17.0427 21.9975 16.9146 21.9975 16.8291 21.9121L9.65327 16.9573C9.65327 17.0854 9.65327 17.2136 9.73869 17.299L16.5729 27.9347C16.6583 28.1055 16.8291 28.191 17.0427 28.191C17.2136 28.191 17.4271 28.1055 17.5126 27.9347Z" fill="black"/>
</svg>
