<svg width="16" height="13" viewBox="0 0 16 13" fill="none" xmlns="http://www.w3.org/2000/svg">
<path fill-rule="evenodd" clip-rule="evenodd" d="M1.18286 13C0.881009 13 0.577338 12.8907 0.346403 12.6705C-0.115468 12.2299 -0.115468 11.5154 0.346403 11.0766L5.14695 6.5013L0.346403 1.92429C-0.115468 1.48549 -0.115468 0.770929 0.346403 0.330398C0.808274 -0.110133 1.55745 -0.110133 2.01932 0.330398L7.65451 5.70349C7.87453 5.91508 8 6.20125 8 6.49957C8 6.79788 7.87453 7.08578 7.65451 7.29564L2.01932 12.6705C1.78839 12.8907 1.48471 13 1.18286 13Z" fill="white"/>
<path opacity="0.5" fill-rule="evenodd" clip-rule="evenodd" d="M14.8776 13H9.12238C8.50248 13 8 12.5523 8 12C8 11.4477 8.50248 11 9.12238 11H14.8776C15.4975 11 16 11.4477 16 12C16 12.5523 15.4975 13 14.8776 13Z" fill="white"/>
</svg>
