<svg width="18" height="18" viewBox="0 0 18 18" fill="none" xmlns="http://www.w3.org/2000/svg">
<path opacity="0.5" d="M9.00011 2.23922V1.10571" stroke="white" stroke-width="1.8" stroke-linecap="round" stroke-linejoin="round"/>
<path opacity="0.5" d="M13.6284 4.23194L14.4001 3.43018" stroke="white" stroke-width="1.8" stroke-linecap="round" stroke-linejoin="round"/>
<path opacity="0.5" d="M15.5454 9.04025H16.6363" stroke="white" stroke-width="1.8" stroke-linecap="round" stroke-linejoin="round"/>
<path opacity="0.5" d="M13.6284 13.8494L14.4001 14.6511" stroke="white" stroke-width="1.8" stroke-linecap="round" stroke-linejoin="round"/>
<path opacity="0.5" d="M4.37173 4.23194L3.6001 3.43018" stroke="white" stroke-width="1.8" stroke-linecap="round" stroke-linejoin="round"/>
<path opacity="0.5" d="M2.45443 9.04025H1.36353" stroke="white" stroke-width="1.8" stroke-linecap="round" stroke-linejoin="round"/>
<path opacity="0.5" d="M4.37173 13.8494L3.6001 14.6511" stroke="white" stroke-width="1.8" stroke-linecap="round" stroke-linejoin="round"/>
<path d="M6.81812 12.9683V14.7063C6.81812 15.9583 7.79495 16.9733 8.99993 16.9733C10.2049 16.9733 11.1818 15.9583 11.1818 14.7063V12.9683" stroke="white" stroke-width="1.8" stroke-linecap="round" stroke-linejoin="round"/>
<path fill-rule="evenodd" clip-rule="evenodd" d="M9.00011 13.5743C11.4101 13.5743 13.3637 11.5443 13.3637 9.04026C13.3637 6.53618 11.4101 4.50623 9.00011 4.50623C6.59014 4.50623 4.63647 6.53618 4.63647 9.04026C4.63647 11.5443 6.59014 13.5743 9.00011 13.5743Z" stroke="white" stroke-width="1.8" stroke-linecap="round" stroke-linejoin="round"/>
</svg>
