<svg width="20" height="22" viewBox="0 0 20 22" fill="none" xmlns="http://www.w3.org/2000/svg">
<path opacity="0.5" d="M9.99991 2.84177V1.6145" stroke="#4360DF" stroke-width="2" stroke-linecap="round" stroke-linejoin="round"/>
<path opacity="0.5" d="M15.207 4.99932L16.0751 4.13123" stroke="#4360DF" stroke-width="2" stroke-linecap="round" stroke-linejoin="round"/>
<path opacity="0.5" d="M17.3638 10.2054H18.591" stroke="#4360DF" stroke-width="2" stroke-linecap="round" stroke-linejoin="round"/>
<path opacity="0.5" d="M15.207 15.4122L16.0751 16.2803" stroke="#4360DF" stroke-width="2" stroke-linecap="round" stroke-linejoin="round"/>
<path opacity="0.5" d="M4.7929 4.99932L3.9248 4.13123" stroke="#4360DF" stroke-width="2" stroke-linecap="round" stroke-linejoin="round"/>
<path opacity="0.5" d="M2.63645 10.2054H1.40918" stroke="#4360DF" stroke-width="2" stroke-linecap="round" stroke-linejoin="round"/>
<path opacity="0.5" d="M4.7929 15.4122L3.9248 16.2803" stroke="#4360DF" stroke-width="2" stroke-linecap="round" stroke-linejoin="round"/>
<path d="M7.54541 14.4583V16.3401C7.54541 17.6957 8.64435 18.7946 9.99996 18.7946C11.3556 18.7946 12.4545 17.6957 12.4545 16.3401V14.4583" stroke="#4360DF" stroke-width="2" stroke-linecap="round" stroke-linejoin="round"/>
<path fill-rule="evenodd" clip-rule="evenodd" d="M9.99991 15.1144C12.7111 15.1144 14.909 12.9166 14.909 10.2054C14.909 7.49414 12.7111 5.29626 9.99991 5.29626C7.2887 5.29626 5.09082 7.49414 5.09082 10.2054C5.09082 12.9166 7.2887 15.1144 9.99991 15.1144Z" stroke="#4360DF" stroke-width="2" stroke-linecap="round" stroke-linejoin="round"/>
<path opacity="0.5" d="M9.99991 18.7963V20.0235" stroke="#4360DF" stroke-width="2" stroke-linecap="round" stroke-linejoin="round"/>
</svg>
