<svg width="36" height="35" viewBox="0 0 36 35" fill="none" xmlns="http://www.w3.org/2000/svg">
<path opacity="0.5" d="M18 4.40101V2.20483" stroke="white" stroke-width="3.6" stroke-linecap="round" stroke-linejoin="round"/>
<path opacity="0.5" d="M27.2567 8.26186L28.8 6.70844" stroke="white" stroke-width="3.6" stroke-linecap="round" stroke-linejoin="round"/>
<path opacity="0.5" d="M31.0909 17.578H33.2727" stroke="white" stroke-width="3.6" stroke-linecap="round" stroke-linejoin="round"/>
<path opacity="0.5" d="M27.2567 26.8956L28.8 28.4491" stroke="white" stroke-width="3.6" stroke-linecap="round" stroke-linejoin="round"/>
<path opacity="0.5" d="M8.74328 8.26186L7.20001 6.70844" stroke="white" stroke-width="3.6" stroke-linecap="round" stroke-linejoin="round"/>
<path opacity="0.5" d="M4.90911 17.578H2.72729" stroke="white" stroke-width="3.6" stroke-linecap="round" stroke-linejoin="round"/>
<path opacity="0.5" d="M8.74328 26.8956L7.20001 28.4491" stroke="white" stroke-width="3.6" stroke-linecap="round" stroke-linejoin="round"/>
<path d="M13.6364 25.1885V28.5559C13.6364 30.9818 15.59 32.9483 18 32.9483C20.41 32.9483 22.3636 30.9818 22.3636 28.5559V25.1885" stroke="white" stroke-width="3.6" stroke-linecap="round" stroke-linejoin="round"/>
<path fill-rule="evenodd" clip-rule="evenodd" d="M18 26.3627C22.8199 26.3627 26.7273 22.4297 26.7273 17.578C26.7273 12.7264 22.8199 8.79333 18 8.79333C13.18 8.79333 9.27271 12.7264 9.27271 17.578C9.27271 22.4297 13.18 26.3627 18 26.3627Z" stroke="white" stroke-width="3.6" stroke-linecap="round" stroke-linejoin="round"/>
</svg>
