<svg width="38" height="36" viewBox="0 0 38 36" fill="none" xmlns="http://www.w3.org/2000/svg">
<path fill-rule="evenodd" clip-rule="evenodd" d="M19.8947 32.2222C26.8128 32.2222 32.421 26.6506 32.421 19.7778C32.421 12.9049 26.8128 7.33331 19.8947 7.33331C12.9766 7.33331 7.36841 12.9049 7.36841 19.7778C7.36841 26.6506 12.9766 32.2222 19.8947 32.2222Z" stroke="white" stroke-opacity="0.4" stroke-width="3.6" stroke-linecap="round" stroke-linejoin="round"/>
<path fill-rule="evenodd" clip-rule="evenodd" d="M20.7895 14.4444C24.2486 14.4444 27.0527 11.6587 27.0527 8.22222C27.0527 4.78578 24.2486 2 20.7895 2C17.3305 2 14.5264 4.78578 14.5264 8.22222C14.5264 11.6587 17.3305 14.4444 20.7895 14.4444Z" fill="#222325" stroke="white" stroke-width="3.6"/>
<path fill-rule="evenodd" clip-rule="evenodd" d="M29.7368 34C33.1958 34 35.9999 31.2142 35.9999 27.7778C35.9999 24.3413 33.1958 21.5555 29.7368 21.5555C26.2777 21.5555 23.4736 24.3413 23.4736 27.7778C23.4736 31.2142 26.2777 34 29.7368 34Z" fill="#222325" stroke="white" stroke-width="3.6"/>
<path fill-rule="evenodd" clip-rule="evenodd" d="M8.26316 30.4444C11.7222 30.4444 14.5263 27.6587 14.5263 24.2222C14.5263 20.7858 11.7222 18 8.26316 18C4.80411 18 2 20.7858 2 24.2222C2 27.6587 4.80411 30.4444 8.26316 30.4444Z" fill="#222325" stroke="white" stroke-width="3.6"/>
</svg>
