<svg width="32" height="26" viewBox="0 0 32 26" fill="none" xmlns="http://www.w3.org/2000/svg">
<path fill-rule="evenodd" clip-rule="evenodd" d="M2.36572 26C1.76202 26 1.15468 25.7815 0.692806 25.3409C-0.230935 24.4599 -0.230935 23.0308 0.692806 22.1532L10.2939 13.0026L0.692806 3.84858C-0.230935 2.97098 -0.230935 1.54186 0.692806 0.660796C1.61655 -0.220266 3.1149 -0.220266 4.03864 0.660796L15.309 11.407C15.7491 11.8302 16 12.4025 16 12.9991C16 13.5958 15.7491 14.1716 15.309 14.5913L4.03864 25.3409C3.57677 25.7815 2.96943 26 2.36572 26Z" fill="white"/>
<path opacity="0.5" fill-rule="evenodd" clip-rule="evenodd" d="M29.7552 26H18.2448C17.005 26 16 25.1046 16 24C16 22.8954 17.005 22 18.2448 22H29.7552C30.995 22 32 22.8954 32 24C32 25.1046 30.995 26 29.7552 26Z" fill="white"/>
</svg>
