<svg width="34" height="32" viewBox="0 0 34 32" fill="none" xmlns="http://www.w3.org/2000/svg">
<path fill-rule="evenodd" clip-rule="evenodd" d="M0 16.4063C-0.000461847 23.4688 4.68203 29.7391 11.6242 31.9721C12.4747 32.1217 12.7848 31.6158 12.7848 31.1807C12.7848 30.7909 12.7705 29.7594 12.7623 28.3912C8.03432 29.3814 7.03692 26.1923 7.03692 26.1923C6.26184 24.2965 5.14817 23.7906 5.14817 23.7906C3.60413 22.7748 5.26443 22.7944 5.26443 22.7944C6.97165 22.9106 7.86911 24.4855 7.86911 24.4855C9.3846 26.9915 11.8465 26.2671 12.8154 25.8478C12.9704 24.7886 13.4089 24.0662 13.8964 23.6547C10.1209 23.2413 6.15169 21.8338 6.15169 15.548C6.15169 13.7566 6.81459 12.2919 7.90175 11.1462C7.72633 10.7308 7.14298 9.06146 8.069 6.80347C8.069 6.80347 9.49678 6.36251 12.7419 8.48663C14.1293 8.1216 15.5607 7.93559 16.9987 7.93345C18.436 7.93531 19.8667 8.12065 21.2535 8.48466C24.4966 6.3625 25.9244 6.80347 25.9244 6.80347C26.8504 9.06146 26.2671 10.7308 26.0917 11.1462C27.1829 12.2919 27.8397 13.7566 27.8397 15.548C27.8397 21.8495 23.8643 23.2374 20.0787 23.6429C20.6885 24.1488 21.2331 25.1509 21.2331 26.6805C21.2331 28.8735 21.2127 30.6433 21.2127 31.1807C21.2127 31.6197 21.5187 32.1296 22.3794 31.9701C30.616 29.3174 35.4571 21.1 33.6072 12.912C31.7573 4.72401 23.8111 -0.80223 15.178 0.0953949C6.54497 0.993019 0.000548505 8.02593 0 16.4063H0Z" fill="#090909"/>
</svg>
