<svg width="19" height="19" viewBox="0 0 19 19" fill="none" xmlns="http://www.w3.org/2000/svg">
<path fill-rule="evenodd" clip-rule="evenodd" d="M0 9.74126C-0.000258091 13.9346 2.61643 17.6576 6.49586 18.9834C6.97117 19.0723 7.14442 18.7719 7.14442 18.5135C7.14442 18.2821 7.13644 17.6696 7.13188 16.8573C4.48977 17.4452 3.9324 15.5517 3.9324 15.5517C3.49926 14.426 2.87692 14.1256 2.87692 14.1256C2.01407 13.5225 2.94189 13.5342 2.94189 13.5342C3.89592 13.6032 4.39744 14.5383 4.39744 14.5383C5.24433 16.0262 6.6201 15.5961 7.16152 15.3471C7.24815 14.7183 7.49321 14.2893 7.76563 14.045C5.65581 13.7995 3.43771 12.9638 3.43771 9.23163C3.43771 8.16797 3.80815 7.29834 4.41568 6.61807C4.31766 6.37144 3.99167 5.38024 4.50915 4.03956C4.50915 4.03956 5.30702 3.77774 7.12049 5.03894C7.8958 4.8222 8.6957 4.71176 9.4993 4.71049C10.3025 4.71159 11.102 4.82164 11.877 5.03777C13.6893 3.77774 14.4872 4.03956 14.4872 4.03956C15.0047 5.38024 14.6787 6.37144 14.5806 6.61807C15.1904 7.29834 15.5575 8.16797 15.5575 9.23163C15.5575 12.9732 13.336 13.7972 11.2204 14.038C11.5612 14.3384 11.8656 14.9333 11.8656 15.8415C11.8656 17.1436 11.8542 18.1944 11.8542 18.5135C11.8542 18.7742 12.0252 19.0769 12.5062 18.9823C17.1089 17.4072 19.8143 12.5281 18.7805 7.6665C17.7467 2.80488 13.3062 -0.476324 8.48183 0.0566407C3.65748 0.589605 0.000306517 4.7654 0 9.74126H0Z" fill="white" fill-opacity="0.7"/>
</svg>
