<svg width="19" height="19" viewBox="0 0 19 19" fill="none" xmlns="http://www.w3.org/2000/svg">
<path d="M16.3393 7.55181C15.7826 7.55181 15.2928 7.78188 14.9328 8.14185C13.608 7.22524 11.8231 6.6352 9.84513 6.57212L10.8731 1.94087L14.1461 2.67563C14.1461 3.4772 14.7992 4.13032 15.6008 4.13032C16.4172 4.13032 17.074 3.45864 17.074 2.65708C17.074 1.85552 16.4209 1.18384 15.6008 1.18384C15.0293 1.18384 14.5358 1.52896 14.2908 2.00024L10.6764 1.19868C10.4945 1.15044 10.3164 1.28032 10.2682 1.46216L9.14006 6.56841C7.17697 6.65005 5.41056 7.24009 4.08205 8.15669C3.72209 7.78188 3.21369 7.55181 2.65705 7.55181C0.593767 7.55181 -0.0816236 10.3202 1.80724 11.2665C1.74045 11.5596 1.71076 11.8713 1.71076 12.1831C1.71076 15.2928 5.21388 17.8125 9.51486 17.8125C13.8344 17.8125 17.3375 15.2928 17.3375 12.1831C17.3375 11.8713 17.3041 11.5448 17.2225 11.2516C19.0742 10.3016 18.3914 7.55181 16.3393 7.55181V7.55181ZM4.80197 11.4631C4.80197 10.6467 5.4551 9.98989 6.27521 9.98989C7.07678 9.98989 7.7299 10.643 7.7299 11.4631C7.7299 12.2647 7.07678 12.9178 6.27521 12.9178C5.45881 12.9215 4.80197 12.2647 4.80197 11.4631V11.4631ZM12.7545 14.9329C11.4037 16.2836 7.5926 16.2836 6.24181 14.9329C6.09338 14.803 6.09338 14.5729 6.24181 14.4245C6.3717 14.2946 6.60178 14.2946 6.73166 14.4245C7.7633 15.4821 11.1848 15.5006 12.261 14.4245C12.3908 14.2946 12.6209 14.2946 12.7508 14.4245C12.9029 14.5729 12.9029 14.803 12.7545 14.9329ZM12.7248 12.9215C11.9233 12.9215 11.2701 12.2684 11.2701 11.4668C11.2701 10.6504 11.9233 9.9936 12.7248 9.9936C13.5412 9.9936 14.1981 10.6467 14.1981 11.4668C14.1944 12.2647 13.5412 12.9215 12.7248 12.9215Z" fill="#221E1B"/>
</svg>
