<svg width="26" height="26" viewBox="0 0 26 26" fill="none" xmlns="http://www.w3.org/2000/svg">
<path fill-rule="evenodd" clip-rule="evenodd" d="M0 12.999C-0.000353177 18.5948 3.58038 23.5628 8.88907 25.332C9.53949 25.4506 9.77658 25.0497 9.77658 24.705C9.77658 24.3962 9.76566 23.5789 9.75942 22.4948C6.1439 23.2794 5.38117 20.7526 5.38117 20.7526C4.78846 19.2505 3.93684 18.8497 3.93684 18.8497C2.7561 18.0448 4.02574 18.0604 4.02574 18.0604C5.33126 18.1525 6.01756 19.4003 6.01756 19.4003C7.17646 21.3859 9.05909 20.8119 9.79997 20.4796C9.91852 19.6405 10.2539 19.0681 10.6266 18.7421C7.73953 18.4145 4.70424 17.2993 4.70424 12.319C4.70424 10.8996 5.21116 9.73912 6.04251 8.83134C5.90837 8.50223 5.46228 7.17956 6.17041 5.39051C6.17041 5.39051 7.26224 5.04113 9.74382 6.72411C10.8048 6.43489 11.8994 6.28751 12.999 6.28581C14.0981 6.28729 15.1922 6.43414 16.2527 6.72255C18.7327 5.04113 19.8246 5.39051 19.8246 5.39051C20.5327 7.17956 20.0866 8.50223 19.9525 8.83134C20.7869 9.73912 21.2892 10.8996 21.2892 12.319C21.2892 17.3118 18.2492 18.4114 15.3543 18.7327C15.8206 19.1336 16.2371 19.9275 16.2371 21.1394C16.2371 22.877 16.2215 24.2792 16.2215 24.705C16.2215 25.0529 16.4555 25.4568 17.1137 25.3305C23.4122 23.2287 27.1143 16.7179 25.6996 10.2304C24.285 3.74291 18.2085 -0.635621 11.6067 0.075583C5.00498 0.786787 0.000419445 6.35909 0 12.999H0Z" fill="#4360DF"/>
</svg>
