<svg width="15" height="16" viewBox="0 0 15 16" fill="none" xmlns="http://www.w3.org/2000/svg">
<path fill-rule="evenodd" clip-rule="evenodd" d="M7.56399 7.53454C8.44481 7.62823 9.32562 7.72186 10.4085 7.66023C13.3425 7.49313 15.1198 5.95469 14.9937 3.6551C14.8652 1.31539 12.5007 -0.126087 10.1349 0.00869768C6.27942 0.228154 3.44428 3.68621 3.12497 7.6386C3.64857 7.51329 4.19968 7.43847 4.71939 7.4089C5.80237 7.34727 6.68318 7.4409 7.56399 7.53454ZM0.00597997 12.6495C0.12764 14.7943 2.3677 16.1156 4.60907 15.992C8.26156 15.7908 10.9476 12.6209 11.25 8.9979C10.754 9.11278 10.2319 9.18145 9.73953 9.20852C8.71356 9.26504 7.87904 9.17921 7.04453 9.09332C6.21007 9.0075 5.37556 8.92167 4.34965 8.97819C1.57021 9.13134 -0.113675 10.5415 0.00597997 12.6495Z" fill="#221E1B"/>
</svg>
