<svg width="18" height="18" viewBox="0 0 18 18" fill="none" xmlns="http://www.w3.org/2000/svg">
<path fill-rule="evenodd" clip-rule="evenodd" d="M0 9C0.0564449 3.98085 4.08229 -0.0448244 9 0.000376952C13.9177 -0.0448244 17.9436 3.98085 18 9V9.69728C17.9779 11.1563 17.0646 12.4457 15.7141 12.9244C14.3636 13.4032 12.8639 12.9693 11.9604 11.8384C11.1838 12.656 10.1157 13.1174 9 13.1171C7.33275 13.1172 5.83099 12.0882 5.19969 10.5132C4.56839 8.93825 4.9329 7.13001 6.12211 5.93732C7.31132 4.74464 9.08909 4.40434 10.6209 5.07618C12.1527 5.74801 13.1344 7.29858 13.1051 9V9.69728C13.1309 10.5176 13.79 11.169 14.5941 11.169C15.3983 11.169 16.0574 10.5176 16.0831 9.69728V9C16.0276 5.06098 12.8595 1.91068 9 1.95682C5.14055 1.91068 1.97238 5.06098 1.91685 9C1.97238 12.939 5.14055 16.0893 9 16.0432C10.4275 16.0493 11.8242 15.6198 13.0108 14.8098C13.2952 14.6151 13.6597 14.59 13.9671 14.744C14.2745 14.8979 14.4781 15.2076 14.5011 15.5563C14.5242 15.905 14.3632 16.2397 14.0789 16.4345C12.5765 17.4609 10.8079 18.0059 9 17.9996C4.08229 18.0448 0.0564449 14.0192 0 9ZM6.95178 8.952C6.92622 10.1367 7.83964 11.1217 9 11.1607C10.1882 11.179 11.1669 10.2127 11.1883 9C11.1885 7.81503 10.2542 6.85064 9.09329 6.83748C7.93237 6.82433 6.97735 7.76731 6.95178 8.952Z" fill="black"/>
</svg>
