<svg width="13" height="17" viewBox="0 0 13 17" fill="none" xmlns="http://www.w3.org/2000/svg">
<path fill-rule="evenodd" clip-rule="evenodd" d="M0.0665699 14.5689V3.00753C0.0230615 2.82274 0 2.62968 0 2.43106C0 1.08842 1.05383 0 2.35379 0C2.41513 0 2.47593 0.00242368 2.53609 0.00718339H7.12794C10.3611 0.00718339 13 2.73277 13 6.07201C13 7.95018 12.1657 9.63401 10.8605 10.7482L12.4972 13.1641C13.2424 14.2588 12.9873 15.7701 11.9274 16.5397C10.8675 17.3094 9.40424 17.0459 8.65905 15.9512L6.07557 12.1379H4.77316V14.5689C4.77395 15.2139 4.52622 15.8328 4.08462 16.2889C3.64303 16.745 3.04387 17.0008 2.41937 17C1.79495 17.0008 1.1959 16.7449 0.754461 16.2888C0.313025 15.8327 0.0655133 15.2138 0.0665699 14.5689Z" fill="black"/>
</svg>
