<svg width="18" height="21" viewBox="0 0 18 21" fill="none" xmlns="http://www.w3.org/2000/svg">
<path fill-rule="evenodd" clip-rule="evenodd" d="M17.4415 16.8613C16.8234 16.609 16.5591 16.2743 16.5846 15.775C16.611 15.1921 16.2791 14.7651 16.1214 14.5964C16.2167 14.234 16.4949 12.9802 16.1217 11.8911C15.7206 10.7254 14.4962 8.9451 13.2327 7.19506C12.7155 6.47637 12.691 5.69517 12.6627 4.79058L12.6627 4.78965V4.78963C12.6356 3.92707 12.6049 2.9494 12.1222 1.86261C11.5972 0.678821 10.5437 0 9.23162 0C8.45111 0 7.64995 0.243051 7.03342 0.666772C5.77093 1.53494 5.9378 3.42777 6.04823 4.68027V4.68028C6.06336 4.85179 6.0776 5.0138 6.08589 5.15213C6.15942 6.37881 6.09253 7.02534 6.00504 7.22184C5.94863 7.34985 5.67159 7.71341 5.37777 8.09901L5.37497 8.10268L5.37367 8.10438L5.37364 8.10443C5.06902 8.50417 4.72389 8.95707 4.44092 9.37914C4.10282 9.88773 3.82988 10.6651 3.56593 11.4168L3.56588 11.417L3.56586 11.417C3.37273 11.9672 3.1903 12.4868 3.01272 12.7973C2.67612 13.3946 2.75987 13.9517 2.82981 14.2091C2.70238 14.2973 2.51829 14.471 2.36288 14.7983C2.17506 15.1976 1.79397 15.4122 1.00151 15.5641C0.637338 15.6383 0.386221 15.7909 0.254928 16.0175C0.0638605 16.3474 0.167928 16.7619 0.262874 17.0452C0.403151 17.4616 0.315737 17.7251 0.156803 18.2037L0.154916 18.2094C0.118755 18.3184 0.0779272 18.4415 0.0365653 18.5771C-0.0297036 18.7947 -0.00579426 18.9926 0.107464 19.1652C0.406745 19.6211 1.28006 19.7819 2.17907 19.8876C2.71586 19.9511 3.30336 20.165 3.87159 20.372L3.87238 20.3723L3.87245 20.3723C4.42894 20.5749 5.0043 20.7844 5.52734 20.848C5.60688 20.858 5.68565 20.863 5.7616 20.863C6.55171 20.863 6.90869 20.3406 7.02188 20.126C7.30568 20.0683 8.28451 19.8835 9.29333 19.8587C10.3006 19.8301 11.2751 20.0282 11.5512 20.0898C11.638 20.2554 11.8668 20.6334 12.2315 20.8282C12.4319 20.9374 12.7109 21 12.9966 21H12.9967C13.3019 21 13.8824 20.9281 14.3419 20.4465C14.8001 19.9626 15.9452 19.3448 16.7813 18.8938C16.9679 18.7931 17.1424 18.6989 17.2955 18.6139C17.7652 18.3545 18.0215 17.9838 17.9986 17.5969C17.9795 17.2755 17.7661 16.9937 17.4415 16.8613ZM7.04371 16.7681C6.98525 16.3577 6.45545 15.9507 5.84189 15.4795L5.84147 15.4792C5.33989 15.0939 4.77153 14.6573 4.61492 14.2875C4.29117 13.5245 4.54637 12.1828 4.99132 11.492C5.2111 11.1462 5.39064 10.6219 5.56429 10.1148L5.56452 10.1141C5.75206 9.56635 5.94603 8.99997 6.16294 8.75203C6.50645 8.36494 6.8239 7.61176 6.88015 7.01818C7.20182 7.32416 7.7008 7.71242 8.16178 7.71242C8.23275 7.71242 8.30165 7.7032 8.3675 7.68467C8.68256 7.59402 9.14582 7.32739 9.59401 7.06943L9.59537 7.06865C9.98214 6.84598 10.4591 6.57139 10.6385 6.5464C10.9462 6.98664 12.7343 10.9292 12.917 12.1954C13.0615 13.1972 12.9088 14.0253 12.832 14.3497C12.7703 14.3413 12.6966 14.3345 12.6192 14.3345C12.1212 14.3345 11.9893 14.6054 11.955 14.7671C11.8667 15.1873 11.8574 16.531 11.8564 16.8329C11.6763 17.0609 10.7656 18.1344 9.45814 18.3274C8.92557 18.4045 8.42824 18.4436 7.98005 18.4436C7.59694 18.4436 7.35246 18.4142 7.25095 18.3988L6.59393 17.6498C6.85299 17.5223 7.11199 17.2534 7.04371 16.7681ZM7.8169 4.44514C7.83673 4.43509 7.85691 4.42566 7.87743 4.41685C7.88752 4.34551 7.89242 4.27873 7.89242 4.2116C7.89242 3.67895 7.60931 3.22893 7.27417 3.22893C6.98878 3.22893 6.74823 3.54214 6.67975 3.96517C6.75784 3.77238 6.90033 3.6364 7.082 3.60624C7.10694 3.60245 7.12968 3.60073 7.15227 3.60073C7.45763 3.60073 7.73142 3.89935 7.80314 4.31074C7.81026 4.35584 7.81489 4.4008 7.8169 4.44514ZM10.4816 4.73405C10.5123 4.63669 10.5289 4.53135 10.5289 4.42201C10.5289 3.93907 10.2214 3.56073 9.8288 3.56073C9.44515 3.56073 9.13301 3.94706 9.13301 4.42201C9.13301 4.45437 9.1346 4.4868 9.13764 4.51916L9.07815 4.49651C9.03399 4.36328 9.01167 4.22426 9.01167 4.08236C9.01167 3.50489 9.38206 3.03504 9.83744 3.03504C10.2928 3.03504 10.6632 3.50489 10.6632 4.08236C10.6632 4.32259 10.5967 4.55187 10.4816 4.73405ZM9.97094 5.98015C10.1253 5.90014 10.1393 5.8872 10.1458 5.85801C10.1284 5.8127 9.98421 5.69166 9.70773 5.59705C9.61997 5.56566 9.49524 5.51608 9.35082 5.45866L9.34885 5.45788C9.03655 5.33373 8.61017 5.16425 8.43709 5.13381C8.42976 5.13243 8.42271 5.13188 8.4149 5.13188C8.2673 5.13188 7.96906 5.31641 7.67268 5.59099C7.52667 5.7223 7.24148 5.94407 7.12643 6.03269C7.15207 6.13204 7.37907 6.38618 7.73197 6.6169C7.78207 6.64892 7.82906 6.68073 7.87321 6.71068C8.06898 6.84322 8.15605 6.89762 8.29681 6.87875C8.50369 6.85174 9.2648 6.39203 9.59175 6.19454L9.59177 6.19454L9.59344 6.19353L9.67456 6.14457C9.79598 6.0709 9.893 6.02057 9.97094 5.98015ZM12.6298 18.6901C12.7858 17.9891 12.9655 17.0355 12.9364 16.4733C12.9297 16.3456 12.9184 16.2066 12.9074 16.0722C12.8868 15.8209 12.8564 15.4474 12.8878 15.3366C12.894 15.3337 12.9009 15.3312 12.9086 15.3291C12.9099 15.6505 12.98 16.2916 13.4945 16.5151C13.6479 16.5818 13.8231 16.6155 14.0153 16.6155C14.5308 16.6155 15.1027 16.3636 15.3369 16.1302C15.4748 15.9927 15.5909 15.8246 15.6721 15.6914C15.6899 15.7433 15.7008 15.811 15.6951 15.8983C15.6645 16.3724 15.8957 17.0013 16.3357 17.2331L16.3998 17.2666C16.5565 17.3485 16.9728 17.5663 16.9795 17.6696C16.9794 17.6697 16.976 17.6818 16.9527 17.7033C16.8485 17.7981 16.4819 17.9847 16.1272 18.1652L16.1265 18.1655C15.497 18.4858 14.7833 18.8489 14.4628 19.1848C14.0116 19.6579 13.5012 19.9757 13.193 19.9757C13.1559 19.9757 13.1221 19.9711 13.0921 19.9616C12.7573 19.8576 12.4818 19.3764 12.6298 18.6901ZM1.22034 16.9018L1.22035 16.9018L1.22048 16.9024C1.26067 17.09 1.31069 17.3234 1.2681 17.6101C1.23804 17.79 1.18317 17.9619 1.13004 18.1281L1.12995 18.1284C1.05617 18.3596 0.97258 18.6215 1.04469 18.7021C1.13356 18.7802 1.66894 18.8666 2.06086 18.9298L2.0627 18.9301L2.06311 18.9302C2.55575 19.0096 3.06511 19.0918 3.37716 19.2221L3.45988 19.2568C4.01884 19.4909 5.05924 19.9266 5.58483 19.9266C5.63272 19.9266 5.67342 19.9228 5.70631 19.9154C5.79691 19.8546 6.18098 19.5797 6.25312 19.2417C6.35166 18.8061 5.95107 18.2981 5.70362 18.034C5.42942 17.7405 4.9048 16.8659 4.52095 16.226L4.51921 16.2231C4.39082 16.0089 4.27984 15.8238 4.21993 15.7315C3.98374 15.3653 3.57383 14.9561 3.37848 14.9561C3.36134 14.9561 3.35236 14.9601 3.34648 14.9635C3.24237 15.0226 3.15486 15.2023 3.07013 15.3763L3.06973 15.3771C2.95253 15.6181 2.81965 15.8913 2.57427 16.0394C2.39296 16.149 2.11576 16.209 1.84765 16.267L1.84697 16.2671C1.65611 16.3084 1.20923 16.405 1.18822 16.4952C1.15927 16.617 1.18621 16.7426 1.22034 16.9018Z" fill="#090909"/>
</svg>
