<svg width="46" height="70" viewBox="0 0 46 70" fill="none" xmlns="http://www.w3.org/2000/svg">
<path fill-rule="evenodd" clip-rule="evenodd" d="M14.2147 20.4422V13.8619C14.2147 8.98109 18.1563 5.01009 23 5.01009C27.8447 5.01009 31.7862 8.98109 31.7862 13.8619V20.4422H32.392C33.9037 20.4422 35.3608 20.6576 36.7592 21.0233V13.8619C36.7592 6.21853 30.5868 0 23 0C15.4132 0 9.24177 6.21853 9.24177 13.8619V21.0233C10.6392 20.6576 12.0982 20.4422 13.61 20.4422H14.2147ZM14.9189 24.1587C6.6797 24.1587 0 30.8882 0 39.1889V54.9697C0 63.2714 6.6797 70 14.9189 70H31.0811C39.3203 70 46 63.2714 46 54.9697V39.1889C46 30.8882 39.3203 24.1587 31.0811 24.1587H14.9189ZM25.7351 54.2573V47.0418C26.8859 46.19 27.6418 44.8283 27.6418 43.2802C27.6418 40.698 25.5631 38.6038 23 38.6038C20.4369 38.6038 18.3582 40.698 18.3582 43.2802C18.3582 44.8283 19.1141 46.19 20.2649 47.0418V54.2573C20.2649 55.7804 21.4892 57.0128 23 57.0128C24.5108 57.0128 25.7351 55.7804 25.7351 54.2573Z" fill="black"/>
</svg>
