<svg width="21" height="22" viewBox="0 0 21 22" fill="none" xmlns="http://www.w3.org/2000/svg">
<path d="M11.5004 16.8833V18.4908C11.3149 19.5841 10.3753 20.3834 9.27574 20.3833H3.87726C2.6307 20.3833 1.62002 19.3642 1.61957 18.1067V5.16083C1.62002 3.90319 2.63056 2.88379 3.87726 2.88333H6.88587" stroke="#4360DF" stroke-width="2" stroke-linecap="round" stroke-linejoin="round"/>
<path d="M6.57608 16.5708C6.405 16.5708 6.2663 16.7108 6.2663 16.8833C6.2663 17.0559 6.405 17.1958 6.57608 17.1958C6.74717 17.1958 6.88587 17.0559 6.88587 16.8833C6.88587 16.7108 6.74717 16.5708 6.57608 16.5708V16.5708" stroke="#4360DF" stroke-width="2" stroke-linecap="round" stroke-linejoin="round"/>
<path fill-rule="evenodd" clip-rule="evenodd" d="M14.6311 1.00006C12.5236 0.990561 10.6071 2.19556 9.73736 4.07699C8.86763 5.95841 9.20704 8.16507 10.604 9.71162L9.93199 13.5L13.4333 11.3848C15.4434 11.837 17.5401 11.1202 18.827 9.54074C20.114 7.96129 20.3634 5.79874 19.4687 3.97759C18.574 2.15644 16.6935 0.998988 14.6311 1.00006Z" stroke="#4360DF" stroke-width="2" stroke-linecap="round" stroke-linejoin="round"/>
</svg>
