<svg width="351" height="94" viewBox="0 0 351 94" fill="none" xmlns="http://www.w3.org/2000/svg">
<path d="M111.387 27.5L206.067 27.5C211.773 27.5 217.361 29.1272 222.174 32.1908L234.929 40.3082C239.744 43.3724 245.333 44.9997 251.04 44.999L284.383 44.9953" stroke="#43DF6D" stroke-width="1.5" stroke-linecap="round" stroke-linejoin="round"/>
<path d="M0 45L349.383 45" stroke="#4360DF" stroke-width="1.5" stroke-linecap="round" stroke-linejoin="round"/>
<path d="M22.0859 44.9953H32.9994C40.9559 44.9953 48.5865 48.156 54.2126 53.7821L57.9437 57.5132C63.5698 63.1393 71.2004 66.5 79.1569 66.5H131.074C139.03 66.5 146.661 63.1393 152.287 57.5132L156.018 53.7821C161.644 48.156 169.275 45 177.231 45H200.945" stroke="#4360DF" stroke-width="1.5" stroke-linecap="round" stroke-linejoin="round"/>
<path d="M154 66.5H171.851C179.764 66.5 187.356 69.6258 192.974 75.1969L198.628 80.8031C204.247 86.3742 211.839 89.5 219.751 89.5L339.383 89.5" stroke="#43DDDF" stroke-width="1.5" stroke-linecap="round" stroke-linejoin="round"/>
<path d="M111.387 66.5L281.871 66.5" stroke="#4360DF" stroke-width="1.5" stroke-linecap="round" stroke-linejoin="round"/>
<path d="M0 27.5L119.926 27.5C126.523 27.5 132.935 25.3256 138.172 21.3134L152.041 10.6867C157.277 6.6744 163.69 4.5 170.287 4.5L270.386 4.5C277.452 4.5 284.291 6.99398 289.698 11.5425L300.296 20.4575C305.703 25.006 312.542 27.5 319.608 27.5H339.383" stroke="#090909" stroke-width="1.5" stroke-linecap="round" stroke-linejoin="round"/>
<path fill-rule="evenodd" clip-rule="evenodd" d="M125.5 27.5C125.5 25.567 123.933 24 122 24C120.067 24 118.5 25.567 118.5 27.5C118.5 29.433 120.067 31 122 31C123.933 31 125.5 29.433 125.5 27.5Z" fill="white" stroke="#090909" stroke-width="1.5"/>
<path fill-rule="evenodd" clip-rule="evenodd" d="M247 45C247 43.067 245.433 41.5 243.5 41.5C241.567 41.5 240 43.067 240 45C240 46.933 241.567 48.5 243.5 48.5C245.433 48.5 247 46.933 247 45Z" fill="white" stroke="#43DF6D" stroke-width="1.5"/>
<path fill-rule="evenodd" clip-rule="evenodd" d="M44 45C44 43.067 42.433 41.5 40.5 41.5C38.567 41.5 37 43.067 37 45C37 46.933 38.567 48.5 40.5 48.5C42.433 48.5 44 46.933 44 45Z" fill="white" stroke="#4360DF" stroke-width="1.5"/>
<path fill-rule="evenodd" clip-rule="evenodd" d="M173 45C173 43.067 171.433 41.5 169.5 41.5C167.567 41.5 166 43.067 166 45C166 46.933 167.567 48.5 169.5 48.5C171.433 48.5 173 46.933 173 45Z" fill="white" stroke="#4360DF" stroke-width="1.5"/>
<path fill-rule="evenodd" clip-rule="evenodd" d="M180.5 66.5C180.5 64.567 178.933 63 177 63C175.067 63 173.5 64.567 173.5 66.5C173.5 68.433 175.067 70 177 70C178.933 70 180.5 68.433 180.5 66.5Z" fill="white" stroke="#43DDDF" stroke-width="1.5"/>
<path fill-rule="evenodd" clip-rule="evenodd" d="M339.5 89.5C339.5 87.567 337.933 86 336 86C334.067 86 332.5 87.567 332.5 89.5C332.5 91.433 334.067 93 336 93C337.933 93 339.5 91.433 339.5 89.5Z" fill="white" stroke="#43DDDF" stroke-width="1.5"/>
<path fill-rule="evenodd" clip-rule="evenodd" d="M282 66.5C282 64.567 280.433 63 278.5 63C276.567 63 275 64.567 275 66.5C275 68.433 276.567 70 278.5 70C280.433 70 282 68.433 282 66.5Z" fill="white" stroke="#4360DF" stroke-width="1.5"/>
<path fill-rule="evenodd" clip-rule="evenodd" d="M350 45C350 43.067 348.433 41.5 346.5 41.5C344.567 41.5 343 43.067 343 45C343 46.933 344.567 48.5 346.5 48.5C348.433 48.5 350 46.933 350 45Z" fill="white" stroke="#4360DF" stroke-width="1.5"/>
<path fill-rule="evenodd" clip-rule="evenodd" d="M200.5 4.5C200.5 2.567 198.933 1 197 1C195.067 1 193.5 2.567 193.5 4.5C193.5 6.433 195.067 8 197 8C198.933 8 200.5 6.433 200.5 4.5Z" fill="white" stroke="#090909" stroke-width="1.5"/>
<path fill-rule="evenodd" clip-rule="evenodd" d="M339.5 27.5C339.5 25.567 337.933 24 336 24C334.067 24 332.5 25.567 332.5 27.5C332.5 29.433 334.067 31 336 31C337.933 31 339.5 29.433 339.5 27.5Z" fill="white" stroke="#090909" stroke-width="1.5"/>
</svg>
