<svg width="508" height="662" viewBox="0 0 508 662" fill="none" xmlns="http://www.w3.org/2000/svg">
<path d="M133 182.773V372.134C133 383.546 129.746 394.721 123.618 404.349L107.384 429.858C101.255 439.488 98.0007 450.665 98.002 462.08L98.0094 528.767" stroke="#43DF6D" stroke-width="3" stroke-linecap="round" stroke-linejoin="round"/>
<path d="M98 -40V658.766" stroke="#4360DF" stroke-width="3" stroke-linecap="round" stroke-linejoin="round"/>
<path d="M98.0094 4.17188V25.9987C98.0094 41.9117 91.688 57.173 80.4358 68.4252L72.9736 75.8873C61.7214 87.1395 55 102.401 55 118.314V222.147C55 238.06 61.7214 253.321 72.9736 264.574L80.4358 272.036C91.688 283.288 98 298.549 98 314.462V361.891" stroke="#4360DF" stroke-width="3" stroke-linecap="round" stroke-linejoin="round"/>
<path d="M179 317.152V343.381C179 359.216 185.26 374.408 196.414 385.647L201.495 390.767C212.76 402.116 228.09 408.5 244.081 408.5H551.105" stroke="#090909" stroke-width="3" stroke-linecap="round" stroke-linejoin="round"/>
<path d="M55 268V303.703C55 319.527 48.7484 334.711 37.6063 345.948L26.3937 357.257C15.2516 368.494 9 383.678 9 399.502V638.766" stroke="#43DDDF" stroke-width="3" stroke-linecap="round" stroke-linejoin="round"/>
<path d="M55 182.773V523.742" stroke="#4360DF" stroke-width="3" stroke-linecap="round" stroke-linejoin="round"/>
<path d="M133 -40V199.851C133 213.045 137.349 225.871 145.373 236.344L166.627 264.082C174.651 274.555 179 287.381 179 300.574V500.772C179 514.904 174.012 528.582 164.915 539.396L147.085 560.592C137.988 571.406 133 585.084 133 599.216V638.766" stroke="#090909" stroke-width="3" stroke-linecap="round" stroke-linejoin="round"/>
<path fill-rule="evenodd" clip-rule="evenodd" d="M133 211C136.866 211 140 207.866 140 204C140 200.134 136.866 197 133 197C129.134 197 126 200.134 126 204C126 207.866 129.134 211 133 211Z" fill="white" stroke="#090909" stroke-width="3"/>
<path fill-rule="evenodd" clip-rule="evenodd" d="M98 454C101.866 454 105 450.866 105 447C105 443.134 101.866 440 98 440C94.134 440 91 443.134 91 447C91 450.866 94.134 454 98 454Z" fill="white" stroke="#43DF6D" stroke-width="3"/>
<path fill-rule="evenodd" clip-rule="evenodd" d="M98 48C101.866 48 105 44.866 105 41C105 37.134 101.866 34 98 34C94.134 34 91 37.134 91 41C91 44.866 94.134 48 98 48Z" fill="white" stroke="#4360DF" stroke-width="3"/>
<path fill-rule="evenodd" clip-rule="evenodd" d="M98 306C101.866 306 105 302.866 105 299C105 295.134 101.866 292 98 292C94.134 292 91 295.134 91 299C91 302.866 94.134 306 98 306Z" fill="white" stroke="#4360DF" stroke-width="3"/>
<path fill-rule="evenodd" clip-rule="evenodd" d="M55 321C58.866 321 62 317.866 62 314C62 310.134 58.866 307 55 307C51.134 307 48 310.134 48 314C48 317.866 51.134 321 55 321Z" fill="white" stroke="#43DDDF" stroke-width="3"/>
<path fill-rule="evenodd" clip-rule="evenodd" d="M9 639C12.866 639 16 635.866 16 632C16 628.134 12.866 625 9 625C5.13401 625 2 628.134 2 632C2 635.866 5.13401 639 9 639Z" fill="white" stroke="#43DDDF" stroke-width="3"/>
<path fill-rule="evenodd" clip-rule="evenodd" d="M55 524C58.866 524 62 520.866 62 517C62 513.134 58.866 510 55 510C51.134 510 48 513.134 48 517C48 520.866 51.134 524 55 524Z" fill="white" stroke="#4360DF" stroke-width="3"/>
<path fill-rule="evenodd" clip-rule="evenodd" d="M98 660C101.866 660 105 656.866 105 653C105 649.134 101.866 646 98 646C94.134 646 91 649.134 91 653C91 656.866 94.134 660 98 660Z" fill="white" stroke="#4360DF" stroke-width="3"/>
<path fill-rule="evenodd" clip-rule="evenodd" d="M179 361C182.866 361 186 357.866 186 354C186 350.134 182.866 347 179 347C175.134 347 172 350.134 172 354C172 357.866 175.134 361 179 361Z" fill="white" stroke="#090909" stroke-width="3"/>
<path fill-rule="evenodd" clip-rule="evenodd" d="M133 639C136.866 639 140 635.866 140 632C140 628.134 136.866 625 133 625C129.134 625 126 628.134 126 632C126 635.866 129.134 639 133 639Z" fill="white" stroke="#090909" stroke-width="3"/>
<path fill-rule="evenodd" clip-rule="evenodd" d="M322.5 415.5C326.366 415.5 329.5 412.366 329.5 408.5C329.5 404.634 326.366 401.5 322.5 401.5C318.634 401.5 315.5 404.634 315.5 408.5C315.5 412.366 318.634 415.5 322.5 415.5Z" fill="white" stroke="#090909" stroke-width="3"/>
<path fill-rule="evenodd" clip-rule="evenodd" d="M372.5 415.5C376.366 415.5 379.5 412.366 379.5 408.5C379.5 404.634 376.366 401.5 372.5 401.5C368.634 401.5 365.5 404.634 365.5 408.5C365.5 412.366 368.634 415.5 372.5 415.5Z" fill="white" stroke="#090909" stroke-width="3"/>
</svg>
