<svg width="24" height="24" viewBox="0 0 24 24" fill="none" xmlns="http://www.w3.org/2000/svg">
<path fill-rule="evenodd" clip-rule="evenodd" d="M15.879 23.25H2.25C1.42157 23.25 0.75 22.5784 0.75 21.75V2.25C0.75 1.42157 1.42157 0.75 2.25 0.75H21.75C22.5784 0.75 23.25 1.42157 23.25 2.25V15.879C23.2499 16.2765 23.092 16.6578 22.811 16.939L16.939 22.811C16.6578 23.092 16.2765 23.2499 15.879 23.25Z" stroke="white" stroke-width="1.5" stroke-linecap="round" stroke-linejoin="round"/>
<path d="M0.75 6.75H23.25" stroke="white" stroke-width="1.5" stroke-linecap="round" stroke-linejoin="round"/>
<path d="M6.75 0.75V23.25" stroke="white" stroke-width="1.5" stroke-linecap="round" stroke-linejoin="round"/>
<path d="M15.75 23.25V17.25C15.75 16.4216 16.4216 15.75 17.25 15.75H23.25" stroke="white" stroke-width="1.5" stroke-linecap="round" stroke-linejoin="round"/>
<path d="M11.25 6.75V4.5" stroke="white" stroke-width="1.5" stroke-linecap="round" stroke-linejoin="round"/>
<path d="M17.25 6.75V4.5" stroke="white" stroke-width="1.5" stroke-linecap="round" stroke-linejoin="round"/>
<path d="M6.75 17.25H4.5" stroke="white" stroke-width="1.5" stroke-linecap="round" stroke-linejoin="round"/>
<path d="M6.75 11.25H4.5" stroke="white" stroke-width="1.5" stroke-linecap="round" stroke-linejoin="round"/>
</svg>
