<svg width="90" height="90" viewBox="0 0 90 90" fill="none" xmlns="http://www.w3.org/2000/svg">
<g clip-path="url(#clip0)">
<path d="M0 44.9997C0 50.5041 0.990176 55.7769 2.79896 60.6518L45 64.5649L87.201 60.6518C89.0098 55.7769 90 50.5041 90 44.9997C90 39.4953 89.0098 34.2226 87.201 29.3476L45 25.4346L2.79896 29.3476C0.990176 34.2226 0 39.4953 0 44.9997Z" fill="#FFDA44"/>
<path d="M87.2009 29.3479C80.8427 12.2121 64.3483 0 44.9999 0C25.6514 0 9.15701 12.2121 2.79883 29.3479H87.2009Z" fill="#D80027"/>
<path d="M2.79883 60.6523C9.15701 77.7882 25.6514 90.0003 44.9999 90.0003C64.3483 90.0003 80.8427 77.7882 87.2009 60.6523H2.79883Z" fill="#D80027"/>
</g>
<defs>
<clipPath id="clip0">
<rect width="90" height="90" fill="white"/>
</clipPath>
</defs>
</svg>
