<svg width="18" height="18" viewBox="0 0 18 18" fill="none" xmlns="http://www.w3.org/2000/svg">
<path fill-rule="evenodd" clip-rule="evenodd" d="M8.99945 0C4.02983 0 0 4.13138 0 9.22861C0 13.305 2.57845 16.7634 6.15525 17.9842C6.60553 18.0686 6.76961 17.7837 6.76961 17.539C6.76961 17.3203 6.76188 16.7396 6.75746 15.9698C4.25414 16.5272 3.72597 14.7326 3.72597 14.7326C3.31657 13.6665 2.72652 13.3832 2.72652 13.3832C1.90939 12.8105 2.7884 12.8218 2.7884 12.8218C3.69171 12.8875 4.16685 13.773 4.16685 13.773C4.96961 15.1829 6.27293 14.7756 6.78619 14.54C6.86796 13.9435 7.1 13.5367 7.35746 13.3062C5.35912 13.0734 3.25801 12.2814 3.25801 8.7454C3.25801 7.73819 3.60884 6.91452 4.18453 6.26929C4.09171 6.0359 3.78287 5.0978 4.27238 3.82718C4.27238 3.82718 5.02818 3.57906 6.74751 4.77321C7.46519 4.56814 8.23536 4.46617 9.00055 4.46221C9.76464 4.46617 10.5348 4.56814 11.2536 4.77321C12.9718 3.57906 13.726 3.82718 13.726 3.82718C14.2171 5.0978 13.9083 6.0359 13.8155 6.26929C14.3923 6.91452 14.7409 7.73819 14.7409 8.7454C14.7409 12.2905 12.6365 13.0705 10.6315 13.2988C10.9547 13.5838 11.2425 14.1468 11.2425 15.0079C11.2425 16.2411 11.2315 17.2365 11.2315 17.539C11.2315 17.7859 11.3934 18.0732 11.8503 17.9831C15.4232 16.76 18 13.3039 18 9.22861C18 4.13138 13.9702 0 8.99945 0Z" fill="#221E1B"/>
</svg>
